Genre:Comedy | Drama
Language:English
IMDb:http://www.imdb.com/title/tt0499493/
Source:DVD


Format : MPEG-4
Format profile : Base Media
Codec ID : isom
File size : 829 MiB
Duration : 1h 18mn
Overall bit rate : 1 478 Kbps
Movie name : Hes.Such.A.Girl.2009.DvDRip.x264.Feel-Free


Video
Format settings, CABAC : Yes
Format settings, ReFrames : 4 frames
Codec ID : avc1
Codec ID/Info : Advanced Video Coding
Duration : 1h 18mn
Bit rate mode : Variable
Bit rate : 1 325 Kbps
Width : 720 pixels
Height : 392 pixels
Display aspect ratio : 16:9
Frame rate mode : Constant
Frame rate : 25.000 fps
Color space : YUV
Chroma subsampling : 4:2:0
Bit depth : 8 bits
Scan type : Progressive
Bits/(Pixel*Frame) : 0.188
Stream size : 733 MiB (88%)
Writing library : x264

Audio
ID : 2
Format : AAC
Format/Info : Advanced Audio Codec
Format version : Version 4
Format profile : LC
Codec ID : 40
Duration : 1h 18mn
Bit rate mode : Variable
Bit rate : 165 Kbps
Channel(s) : 2 channels
Channel positions : Front: L R
Sampling rate : 48.0 KHz
Stream size : 92.6 MiB (11%)



Plot:
When life gets hard, find your soft side.


Greets:

INK,CRYS,IMAGINE,LKRG,FXG,3Li,FLAWL3SS,TA,iLLUSiON,ViSiON,LU,TheFalcon007,MYSTiC,PrisM,Noir,WBZ,LAP,Rx,Kingdom,SAFCuk009+Fabreezy,HDLiTE,TWiZTED,ExtraTorrentRG.ELEKTRI4KA,MAGNAT,CM8
And to all the other p2p grps past and present





================================== 
http://thepiratebay.org/user/hiest
==================================






Screenshots:
 
http://www.postimg.com/29000/28652.jpg
 
http://www.postimg.com/29000/28648.jpg
 
http://www.postimg.com/29000/28649.jpg
 
http://www.postimg.com/29000/28651.jpg
 
http://www.postimg.com/29000/28650.jpg

